<?xml version="1.0" encoding="UTF-8"?>
<svg id="Layer_1" xmlns="http://www.w3.org/2000/svg" version="1.1" viewBox="0 0 450.07 189.74">
  <!-- Generator: Adobe Illustrator 29.1.0, SVG Export Plug-In . SVG Version: 2.1.0 Build 142)  -->
  <defs>
    <style>
      .st0 {
        fill: #2a2829;
      }

      .st1 {
        fill: #e9f0bf;
      }

      .st2 {
        fill: none;
        stroke: #000;
        stroke-linecap: round;
        stroke-linejoin: round;
        stroke-width: .79px;
      }

      .st3 {
        fill: #d7ddd9;
      }
    </style>
  </defs>
  <g>
    <path class="st0" d="M169.46,90.82v-26.94h2.69v24.48h13.89v2.46h-16.59Z"/>
    <path class="st0" d="M200.63,90.82v-2.31h6.31v-22.32h-6.31v-2.31h15.32v2.31h-6.31v22.32h6.31v2.31h-15.32Z"/>
    <path class="st0" d="M238.88,91.28c-1.87,0-3.54-.55-5-1.66-1.46-1.1-2.61-2.69-3.45-4.77-.83-2.08-1.25-4.58-1.25-7.5s.43-5.43,1.29-7.5c.86-2.08,2.06-3.67,3.6-4.77,1.54-1.1,3.33-1.66,5.39-1.66,1.64,0,3.1.34,4.37,1.02,1.27.68,2.3,1.63,3.08,2.85.78,1.22,1.25,2.65,1.4,4.29h-3c-.26-1.64-.88-2.99-1.87-4.04-.99-1.05-2.32-1.58-3.98-1.58-2.28,0-4.11,1-5.46,3-1.36,2-2.04,4.8-2.04,8.39,0,2.39.3,4.43.9,6.14.6,1.71,1.44,3.01,2.52,3.91,1.08.9,2.31,1.35,3.69,1.35,1.15,0,2.15-.27,2.98-.81.83-.54,1.53-1.26,2.08-2.17s.98-1.92,1.27-3.04.46-2.25.48-3.41h-6.27v-2.39h9.04v13.89h-2.46l-.23-4.39h-.15c-.54,1.49-1.37,2.67-2.48,3.54s-2.6,1.31-4.45,1.31Z"/>
    <path class="st0" d="M260.24,90.82v-26.94h2.69v11.89h13.86v-11.89h2.69v26.94h-2.69v-12.58h-13.86v12.58h-2.69Z"/>
    <path class="st0" d="M299.31,90.82v-24.48h-7.24v-2.46h17.16v2.46h-7.24v24.48h-2.69Z"/>
    <path class="st0" d="M173.38,128.42l-3.54-26.94h4.31l2.46,21.59,10.08-21.59h4.62l-12.97,26.94h-4.96Z"/>
    <path class="st0" d="M198.13,128.42l4.77-26.94h17.2l-.65,3.66h-13.12l-1.39,7.85h12.01l-.65,3.62h-11.97l-1.46,8.16h13.12l-.65,3.66h-17.2Z"/>
    <path class="st0" d="M227.8,128.42l4.77-26.94h4l7.7,20.05,3.58-20.05h3.89l-4.77,26.94h-4l-7.7-20.05-3.58,20.05h-3.89Z"/>
    <path class="st0" d="M266.13,128.42l4.12-23.28h-7.24l.65-3.66h18.55l-.65,3.66h-7.24l-4.12,23.28h-4.08Z"/>
    <path class="st0" d="M299.15,128.88c-1.8,0-3.37-.43-4.71-1.29-1.35-.86-2.32-2.06-2.92-3.6-.6-1.54-.73-3.35-.37-5.43l3.04-17.09h4.08l-3.08,17.32c-.33,2.05-.1,3.64.69,4.75.79,1.12,2.01,1.67,3.66,1.67,1.74,0,3.19-.53,4.33-1.58,1.14-1.05,1.89-2.67,2.25-4.85l3.08-17.32h4.08l-3.08,17.28c-.64,3.64-1.94,6.24-3.89,7.79s-4.34,2.33-7.16,2.33Z"/>
    <path class="st0" d="M321.09,128.42l4.77-26.94h8.66c2.72,0,4.77.69,6.14,2.06s2.06,3.15,2.06,5.33-.62,4.06-1.87,5.48c-1.25,1.42-2.93,2.41-5.06,2.94l3.7,11.12h-4.46l-3.35-10.66h-4.62l-1.89,10.66h-4.08ZM327.71,114.06h4.5c1.95,0,3.48-.44,4.6-1.33,1.12-.88,1.67-2.1,1.67-3.64,0-1.23-.38-2.2-1.15-2.91-.77-.71-1.99-1.06-3.66-1.06h-4.39l-1.58,8.93Z"/>
    <path class="st0" d="M352.07,128.42l4.77-26.94h17.2l-.65,3.66h-13.12l-1.39,7.85h12.01l-.65,3.62h-11.97l-1.46,8.16h13.12l-.65,3.66h-17.2Z"/>
    <path class="st0" d="M392.29,128.88c-2.13,0-3.86-.38-5.18-1.14-1.32-.76-2.28-1.78-2.87-3.08-.59-1.3-.86-2.75-.81-4.37h4.31c-.18,1.41.13,2.58.94,3.52.81.94,2,1.4,3.56,1.4s2.91-.37,3.89-1.12c.97-.74,1.46-1.81,1.46-3.19,0-.67-.14-1.28-.42-1.83s-.81-1.08-1.6-1.58c-.78-.5-1.93-1.02-3.44-1.56-4-1.46-6-3.96-6-7.5,0-1.56.4-2.9,1.21-4s1.92-1.95,3.35-2.54c1.42-.59,3.07-.89,4.95-.89,2.59,0,4.59.68,6,2.04,1.41,1.36,2.06,3.22,1.96,5.58h-4.31c.08-1.15-.28-2.1-1.06-2.85-.78-.74-1.82-1.12-3.1-1.12-1.39,0-2.51.33-3.37,1s-1.29,1.53-1.29,2.58c0,1.13.4,2.04,1.21,2.73.81.69,2.2,1.41,4.18,2.16,1.18.41,2.23.93,3.16,1.56.92.63,1.66,1.41,2.19,2.33.54.92.81,2.05.81,3.39,0,1.8-.41,3.32-1.23,4.58-.82,1.26-1.96,2.22-3.43,2.89-1.46.67-3.16,1-5.08,1Z"/>
  </g>
  <g>
    <polygon class="st3" points="103.03 55.77 130.25 83.36 102.1 112.44 128.62 112.44 157.48 82.52 130.9 55.77 103.03 55.77"/>
    <polygon class="st1" points="114.28 137.71 87.05 110.12 115.21 81.04 88.69 81.04 59.83 110.96 86.4 137.71 114.28 137.71"/>
    <polyline class="st2" points="129.97 110.96 157.48 82.52 130.9 55.77 103.03 55.77 130.25 83.36 102.1 112.44 129.79 137.71 103.21 137.71 76.08 110.96 103.59 82.71"/>
  </g>
</svg>